<svg id="visual" viewBox="0 0 900 600" width="900" height="600" xmlns="http://www.w3.org/2000/svg" xmlns:xlink="http://www.w3.org/1999/xlink" version="1.1"><rect x="0" y="0" width="900" height="600" fill="#002233"></rect><path d="M0 508L8.8 508.7C17.7 509.3 35.3 510.7 53 517.5C70.7 524.3 88.3 536.7 106 545.7C123.7 554.7 141.3 560.3 159 554.5C176.7 548.7 194.3 531.3 212 533.3C229.7 535.3 247.3 556.7 265 558.8C282.7 561 300.3 544 318 536C335.7 528 353.3 529 371 537.7C388.7 546.3 406.3 562.7 423.8 562C441.3 561.3 458.7 543.7 476.2 538.7C493.7 533.7 511.3 541.3 529 540C546.7 538.7 564.3 528.3 582 532.8C599.7 537.3 617.3 556.7 635 562.2C652.7 567.7 670.3 559.3 688 556.7C705.7 554 723.3 557 741 548.3C758.7 539.7 776.3 519.3 794 518.8C811.7 518.3 829.3 537.7 847 543C864.7 548.3 882.3 539.7 891.2 535.3L900 531L900 601L891.2 601C882.3 601 864.7 601 847 601C829.3 601 811.7 601 794 601C776.3 601 758.7 601 741 601C723.3 601 705.7 601 688 601C670.3 601 652.7 601 635 601C617.3 601 599.7 601 582 601C564.3 601 546.7 601 529 601C511.3 601 493.7 601 476.2 601C458.7 601 441.3 601 423.8 601C406.3 601 388.7 601 371 601C353.3 601 335.7 601 318 601C300.3 601 282.7 601 265 601C247.3 601 229.7 601 212 601C194.3 601 176.7 601 159 601C141.3 601 123.7 601 106 601C88.3 601 70.7 601 53 601C35.3 601 17.7 601 8.8 601L0 601Z" fill="#0066FF" stroke-linecap="round" stroke-linejoin="miter"></path></svg>